# xmcd
#
# Track frame offsets:
#	180
#	23509
#	25864
#	34823
#	39291
#	50281
#	56021
#	81543
#	95521
#	116654
#	138888
#	152655
#	165803
#	171763
#	191608
#	196303
#	219509
#	225408
#	241730
#	246786
#	258006
#
# Disc length: 3605 seconds
#
# Revision: 1
# Processed by: cddbd v1.5.2PL0 Copyright (c) Steve Scherf et al.
# Submitted via: audiograbber 1.83.01
#
DISCID=010e1315
DTITLE=Die letzten Bänkelsänger - Bachgass Erinnerungen
DYEAR=2006
DGENRE=Mundart
TTITLE0=Bachgass Erinnerunge
TTITLE1=Horch was kommt von draussen rein
TTITLE2=Die See'mer Betzelbeern
TTITLE3=Hab mein Wagen vollgeladen
TTITLE4=Un alleweil rabbelts am Scheierdor
TTITLE5=Moritat: Sabinchen war ein Frauenzimmer
TTITLE6=Die verlassene Raeuberbraut
TTITLE7=Der Verfuehrer im Wald
TTITLE8=Sabinchen und der moerderische Schustergeselle
TTITLE9=De Rothausplatz in de Nochkriegszeit
TTITLE10=Zigeunerkind
TTITLE11=Nochbers Lisbeth
TTITLE12=Gruesse aus dem Odenwald
TTITLE13=Eine Wanderung zum Felsberg
TTITLE14=Der Jaeger aus Kurpfalz
TTITLE15=Tief im Odenwald steht ein Bauernhaus
TTITLE16=Eisenbahnerlebnis
TTITLE17=Die Grieneboams Lies
TTITLE18=Ich ging einmal spazieren
TTITLE19=Wir wollen zu Land ausfahren
TTITLE20=Mer sin all vum Orewold
EXTD=
EXTT0=
EXTT1=
EXTT2=
EXTT3=
EXTT4=
EXTT5=
EXTT6=
EXTT7=
EXTT8=
EXTT9=
EXTT10=
EXTT11=
EXTT12=
EXTT13=
EXTT14=
EXTT15=
EXTT16=
EXTT17=
EXTT18=
EXTT19=
EXTT20=
PLAYORDER=
